<?xml version="1.0" standalone="no"?>
<!DOCTYPE svg PUBLIC "-//W3C//DTD SVG 20010904//EN"
 "http://www.w3.org/TR/2001/REC-SVG-20010904/DTD/svg10.dtd">
<svg version="1.0" xmlns="http://www.w3.org/2000/svg"
 width="20.000000pt" height="20.000000pt" viewBox="0 0 512.000000 512.000000"
 preserveAspectRatio="xMidYMid meet">

<g transform="translate(0.000000,512.000000) scale(0.100000,-0.100000)"
fill="#495469" stroke="none">
<path d="M2360 4394 c-414 -14 -781 -57 -1112 -130 -643 -141 -1063 -366
-1201 -643 l-42 -84 -3 -870 c-3 -960 -4 -932 60 -1046 41 -72 162 -193 258
-256 135 -89 439 -228 545 -248 16 -3 65 13 77 26 2 1 5 292 8 647 l5 644 80
23 c416 121 940 186 1510 186 409 -1 751 -27 1075 -83 141 -24 162 -25 188 -2
34 28 37 65 10 97 -21 24 -39 29 -158 50 -262 46 -649 85 -847 85 -61 0 -114
4 -117 8 -3 5 15 29 40 53 25 24 52 57 60 72 27 50 -7 107 -63 107 -31 0 -49
-14 -154 -117 l-120 -117 -187 -7 c-103 -4 -241 -13 -306 -18 -65 -6 -120 -10
-122 -8 -2 2 167 173 374 380 l378 377 43 0 c42 0 47 -4 168 -123 l125 -123
-26 -38 c-31 -47 -32 -65 -5 -100 15 -19 29 -26 57 -26 34 0 56 20 401 364
201 200 374 366 384 370 10 3 32 0 50 -8 18 -8 208 -191 427 -410 l394 -395
-104 -49 c-58 -27 -148 -64 -200 -83 -103 -36 -140 -64 -140 -104 0 -31 41
-75 69 -75 30 0 183 56 311 114 143 65 276 147 358 221 l63 57 -3 -673 -3
-674 -30 -54 c-58 -106 -173 -203 -347 -296 -98 -51 -241 -115 -259 -115 -5 0
-9 107 -9 239 0 226 -1 240 -21 265 -26 33 -79 36 -109 6 -19 -19 -20 -33 -20
-334 0 -408 -7 -397 213 -317 138 51 314 138 417 206 96 63 217 184 258 256
64 114 63 86 60 1046 l-3 870 -42 84 c-35 70 -58 100 -130 170 -99 95 -164
140 -308 216 -371 193 -963 331 -1600 372 -175 12 -539 19 -675 15z m455 -154
c652 -26 1176 -124 1600 -296 233 -95 393 -203 487 -327 73 -97 84 -191 37
-293 -24 -50 -168 -204 -192 -204 -7 0 -199 187 -427 416 -310 311 -426 421
-460 437 -61 27 -143 26 -201 -3 -29 -15 -145 -123 -331 -308 l-288 -286 -132
130 c-73 72 -150 138 -172 148 -50 23 -142 24 -192 0 -25 -11 -160 -137 -371
-348 l-333 -330 -402 401 c-222 220 -418 408 -437 418 -45 23 -126 30 -181 15
-40 -11 -76 -43 -317 -282 -159 -159 -276 -267 -282 -263 -21 12 -62 106 -68
154 -20 170 173 361 512 507 414 178 981 289 1610 313 279 11 279 11 540 1z
m-1488 -972 l403 -403 -68 -67 -67 -68 -145 -25 c-130 -23 -438 -93 -482 -110
-17 -7 -18 2 -18 109 0 143 -3 147 -140 195 -52 19 -144 57 -205 86 -111 53
-265 148 -265 163 0 4 116 123 258 265 237 236 261 257 292 257 32 0 64 -29
437 -402z m-938 -339 c58 -35 165 -88 236 -117 72 -29 140 -57 153 -62 l22
-10 0 -720 c0 -397 -4 -720 -9 -720 -18 0 -161 64 -259 115 -180 95 -297 197
-348 302 l-29 58 -3 668 -2 669 66 -60 c37 -33 114 -89 173 -123z"/>
<path d="M1760 3971 c-195 -60 -259 -312 -115 -456 54 -54 116 -79 195 -78 79
0 124 18 183 72 65 60 91 126 85 217 -8 115 -73 203 -177 239 -47 16 -129 19
-171 6z m140 -157 c38 -23 60 -64 60 -112 0 -70 -79 -134 -144 -118 -39 10
-85 55 -97 95 -29 99 90 188 181 135z"/>
<path d="M4153 2549 c-132 -25 -224 -139 -222 -273 1 -62 14 -101 56 -159 46
-66 109 -99 198 -105 62 -4 80 -1 126 20 106 49 162 134 163 248 2 172 -153
302 -321 269z m103 -159 c65 -32 90 -99 59 -160 -46 -89 -168 -95 -219 -10
-40 69 0 163 79 183 34 8 38 8 81 -13z"/>
<path d="M1387 2149 c-58 -9 -126 -41 -157 -74 -45 -48 -19 -125 42 -125 16 0
49 12 74 26 117 69 254 -5 254 -137 0 -82 -53 -142 -142 -160 -65 -13 -91 -36
-91 -80 0 -45 28 -66 108 -79 85 -14 155 -50 206 -108 107 -122 104 -313 -7
-432 -131 -140 -336 -139 -478 2 -43 42 -54 49 -84 46 -45 -4 -78 -44 -68 -83
9 -35 76 -106 135 -144 150 -96 348 -99 505 -7 55 32 131 111 166 172 80 141
79 336 -3 472 -31 51 -121 145 -162 168 -19 11 -19 12 7 50 86 124 75 293 -26
398 -76 78 -172 110 -279 95z"/>
<path d="M2460 2148 c-179 -20 -347 -178 -380 -357 -13 -70 -13 -632 0 -702
42 -225 274 -392 498 -359 140 21 227 73 308 182 62 85 87 170 86 293 -1 148
-41 246 -138 340 -87 85 -187 125 -308 125 -110 0 -194 -27 -273 -87 l-33 -24
0 95 c0 117 24 189 83 254 97 104 245 125 374 52 66 -38 107 -37 136 2 38 51
6 98 -100 149 -73 35 -160 47 -253 37z m186 -652 c67 -31 120 -86 152 -155 21
-46 25 -70 25 -142 0 -79 -3 -95 -32 -153 -36 -73 -72 -108 -150 -144 -144
-66 -312 -4 -389 143 -37 73 -43 197 -12 279 48 126 147 194 285 195 54 1 82
-5 121 -23z"/>
<path d="M3530 2152 c-174 -13 -322 -130 -381 -299 -17 -51 -19 -85 -19 -413
0 -332 1 -361 20 -416 119 -348 577 -405 777 -96 63 97 66 114 70 464 5 362 0
421 -51 524 -76 153 -245 249 -416 236z m175 -186 c52 -31 91 -75 119 -136 20
-43 21 -61 21 -390 0 -339 0 -346 -23 -395 -108 -234 -427 -223 -527 17 -12
31 -15 93 -15 380 0 338 1 344 24 393 71 153 259 214 401 131z"/>
</g>
</svg>
