<?xml version="1.0" standalone="no"?>
<!DOCTYPE svg PUBLIC "-//W3C//DTD SVG 20010904//EN"
 "http://www.w3.org/TR/2001/REC-SVG-20010904/DTD/svg10.dtd">
<svg version="1.0" xmlns="http://www.w3.org/2000/svg"
 width="20.000000pt" height="20.000000pt" viewBox="0 0 512.000000 512.000000"
 preserveAspectRatio="xMidYMid meet">

<g transform="translate(0.000000,512.000000) scale(0.100000,-0.100000)"
fill="#495469" stroke="none">
<path d="M171 5103 c-26 -9 -65 -36 -91 -62 -87 -87 -80 100 -80 -2050 0
-1266 4 -1918 10 -1943 19 -68 70 -130 134 -163 l60 -30 768 -3 768 -3 -85
-169 -85 -170 -173 0 c-159 0 -176 -2 -222 -24 -94 -43 -148 -129 -148 -231 1
-99 43 -171 132 -223 l46 -27 1355 0 1355 0 46 27 c54 32 93 75 115 127 20 46
21 146 1 192 -22 54 -76 110 -132 135 -46 22 -63 24 -222 24 l-173 0 -85 170
-85 170 739 0 c495 0 757 4 791 11 72 15 137 64 174 129 l31 55 3 1925 c3
2173 10 1983 -77 2070 -88 88 155 80 -2485 79 -2100 0 -2346 -2 -2385 -16z
m4724 -165 c58 -26 55 79 55 -1733 l0 -1665 -1033 0 -1034 0 -63 247 c-36 146
-76 278 -96 321 -107 235 -309 391 -565 438 l-87 16 39 60 c32 50 53 97 84
186 3 7 22 12 49 12 111 0 223 75 278 188 29 58 33 76 33 147 0 85 -11 124
-55 191 -26 39 -28 50 -33 185 -3 105 -11 164 -26 217 -151 519 -685 806
-1194 642 -252 -81 -480 -291 -576 -531 -51 -126 -63 -186 -68 -332 -5 -135
-6 -140 -39 -194 -128 -214 4 -488 248 -512 l59 -6 29 -73 c16 -40 45 -97 64
-127 l35 -54 -37 -6 c-217 -34 -392 -130 -513 -282 -88 -111 -122 -191 -185
-439 -30 -121 -60 -236 -65 -256 -5 -21 -14 -38 -19 -38 -7 0 -10 607 -10
1668 1 1792 -2 1699 51 1728 34 19 4634 21 4674 2z m-3175 -694 c308 -74 559
-364 578 -672 l5 -84 -44 7 c-24 4 -44 8 -45 9 0 0 -8 33 -17 71 -58 242 -251
437 -497 500 -82 21 -233 22 -322 1 -246 -57 -449 -261 -505 -507 -9 -41 -20
-69 -28 -69 -7 0 -27 -3 -45 -7 l-33 -6 6 79 c8 98 37 195 90 299 50 98 187
240 287 298 74 43 196 84 285 97 76 11 201 4 285 -16z m-4 -352 c194 -73 316
-245 331 -466 l6 -88 -24 7 c-83 25 -176 112 -216 203 -13 31 -29 67 -35 78
-11 24 -48 44 -79 44 -31 0 -79 -53 -79 -87 0 -67 -60 -115 -185 -148 -76 -20
-310 -39 -368 -31 l-44 7 5 52 c16 186 140 350 321 426 99 42 262 43 367 3z
m151 -659 c26 -15 77 -38 113 -50 l65 -22 0 -101 0 -102 -160 -65 c-155 -63
-164 -66 -274 -73 -109 -7 -115 -8 -139 -35 -19 -23 -23 -36 -18 -64 9 -62 32
-71 165 -71 l117 0 124 50 c68 27 125 48 127 47 7 -8 -79 -116 -119 -148 -106
-86 -199 -120 -328 -120 -49 0 -108 5 -132 11 -66 18 -171 77 -220 124 -128
122 -173 259 -166 509 l3 107 150 5 c224 6 382 42 480 109 l50 34 57 -58 c31
-32 78 -71 105 -87z m-1017 -73 c0 -166 0 -170 -21 -170 -12 0 -38 9 -58 21
-122 68 -114 242 13 300 23 10 47 19 54 19 9 0 12 -41 12 -170z m1436 151 c89
-40 126 -140 84 -225 -25 -53 -65 -85 -115 -93 l-35 -6 0 172 c0 130 3 171 13
171 6 0 31 -9 53 -19z m-1263 -1019 c4 -79 10 -109 31 -149 30 -60 83 -107
145 -128 64 -21 95 -20 229 10 l22 5 0 -245 0 -245 -255 0 -255 0 0 176 c0
177 -5 205 -39 231 -27 21 -79 15 -106 -12 -25 -24 -25 -26 -25 -210 l0 -185
-200 0 c-110 0 -200 2 -200 5 0 36 118 464 140 509 88 177 264 304 455 329 17
2 35 5 41 6 7 0 13 -34 17 -97z m370 28 l57 -11 0 -53 0 -54 -87 -16 c-106
-21 -137 -13 -158 39 -15 34 -21 146 -9 158 3 3 36 -7 72 -23 37 -15 93 -33
125 -40z m487 1 c0 -83 -10 -114 -45 -137 -25 -16 -31 -16 -120 1 l-95 18 0
52 0 53 73 17 c39 9 95 27 122 40 28 13 53 24 58 24 4 1 7 -30 7 -68z m309 42
c182 -50 343 -201 400 -375 21 -65 111 -419 111 -438 0 -6 -68 -10 -200 -10
l-200 0 0 185 c0 184 0 186 -25 210 -33 34 -83 34 -116 -1 -23 -25 -24 -31
-27 -210 l-3 -184 -255 0 -254 0 0 246 c0 229 1 245 18 240 159 -45 264 -26
345 63 45 50 67 122 67 223 l0 78 43 -6 c23 -3 67 -12 96 -21z m2759 -1135 l3
-137 -30 -33 -29 -33 -2332 0 -2332 0 -29 33 c-29 32 -29 32 -29 165 0 74 3
137 7 140 3 4 1078 6 2387 5 l2381 -3 3 -137z m-1673 -548 l85 -170 -800 0
-800 0 85 170 85 170 630 0 630 0 85 -170z m619 -361 c32 -26 36 -84 7 -120
l-19 -24 -1294 -3 c-711 -1 -1308 0 -1326 3 -64 12 -87 99 -37 143 l26 22
1308 0 1308 0 27 -21z"/>
<path d="M3030 4764 c-109 -23 -205 -77 -290 -163 -87 -87 -131 -164 -160
-277 -17 -66 -20 -111 -20 -308 0 -163 5 -251 15 -299 46 -218 212 -392 434
-453 l61 -17 0 -101 c0 -114 17 -167 65 -204 38 -30 96 -46 138 -38 22 4 122
67 268 169 l234 162 255 6 c244 5 258 6 335 33 190 65 323 199 387 391 22 67
23 83 23 350 0 268 -1 283 -23 345 -37 102 -80 169 -158 247 -82 81 -180 135
-291 158 -98 21 -1176 20 -1273 -1z m1250 -170 c158 -37 280 -160 315 -319 14
-59 16 -116 13 -297 -3 -200 -6 -229 -26 -282 -43 -116 -137 -209 -260 -257
-53 -21 -76 -23 -322 -27 -160 -2 -273 -8 -285 -15 -11 -6 -117 -78 -235 -160
-118 -82 -220 -151 -227 -154 -10 -4 -13 18 -13 101 0 87 -4 114 -20 145 -24
47 -69 77 -141 92 -119 25 -231 105 -292 210 -48 81 -57 143 -57 379 0 236 9
293 57 383 51 93 177 185 283 206 25 5 293 9 595 10 461 1 561 -2 615 -15z"/>
<path d="M3050 4263 c-58 -22 -77 -88 -39 -137 l20 -26 635 0 635 0 24 25 c32
31 32 75 1 112 l-24 28 -619 2 c-340 1 -625 -1 -633 -4z"/>
<path d="M3055 3923 c-65 -17 -88 -98 -39 -144 l26 -24 328 0 328 0 26 24 c36
34 36 88 0 122 l-26 24 -311 2 c-172 0 -321 -1 -332 -4z"/>
</g>
</svg>
