<?xml version="1.0" standalone="no"?>
<!DOCTYPE svg PUBLIC "-//W3C//DTD SVG 20010904//EN"
 "http://www.w3.org/TR/2001/REC-SVG-20010904/DTD/svg10.dtd">
<svg version="1.0" xmlns="http://www.w3.org/2000/svg"
 width="20.000000pt" height="20.000000pt" viewBox="0 0 512.000000 512.000000"
 preserveAspectRatio="xMidYMid meet">

<g transform="translate(0.000000,512.000000) scale(0.100000,-0.100000)"
fill="#495469" stroke="none">
<path d="M1840 5113 c-173 -27 -267 -56 -394 -121 -291 -149 -496 -406 -583
-732 -24 -86 -26 -117 -31 -335 -4 -264 5 -350 54 -506 104 -332 376 -606 715
-722 190 -66 445 -75 644 -23 185 48 378 159 515 296 136 136 247 329 296 515
25 92 27 120 32 343 5 274 -3 355 -50 502 -130 408 -484 711 -908 775 -88 14
-231 18 -290 8z m210 -163 c230 -24 414 -108 579 -265 92 -87 149 -167 206
-287 72 -152 87 -229 92 -471 3 -134 1 -238 -7 -290 -73 -501 -514 -863 -1014
-834 -424 25 -784 326 -887 740 -27 108 -37 410 -19 553 57 456 408 806 857
853 43 5 83 9 88 9 6 1 53 -3 105 -8z"/>
<path d="M1506 4109 c-25 -20 -26 -23 -26 -138 0 -110 1 -119 23 -139 32 -30
81 -29 112 3 23 22 25 31 25 125 0 134 -18 170 -84 170 -13 0 -35 -9 -50 -21z"/>
<path d="M2318 4116 c-28 -21 -38 -62 -38 -152 0 -120 20 -154 91 -154 62 0
85 56 77 191 -4 65 -9 84 -28 104 -26 28 -74 33 -102 11z"/>
<path d="M1758 3575 c-79 -44 -26 -188 91 -247 41 -21 69 -28 110 -28 130 1
247 105 239 213 -3 37 -8 44 -38 61 -32 17 -39 18 -65 5 -17 -8 -38 -30 -47
-49 -21 -42 -53 -70 -80 -70 -33 0 -75 28 -88 59 -24 58 -75 82 -122 56z"/>
<path d="M1805 2470 c-843 -71 -1534 -712 -1671 -1550 -7 -47 -16 -137 -20
-200 -7 -114 -6 -116 19 -145 l25 -30 1164 -3 c639 -2 1182 0 1206 3 66 10 98
60 76 120 -18 46 9 45 -1196 45 l-1134 0 3 38 c16 177 60 368 120 512 127 309
349 582 623 765 97 65 287 165 313 165 9 0 19 -19 27 -47 7 -27 26 -75 43
-107 153 -309 518 -434 830 -286 160 77 286 229 328 395 7 27 17 45 26 45 8 0
62 -22 120 -50 58 -27 119 -50 134 -50 56 0 88 67 58 122 -14 27 -227 129
-361 172 -244 80 -477 107 -733 86z m398 -175 c91 -14 204 -39 213 -47 2 -2
-3 -27 -10 -55 -76 -287 -407 -428 -669 -285 -103 56 -201 186 -226 299 l-9
43 37 10 c37 10 172 36 226 43 80 11 349 6 438 -8z"/>
<path d="M3635 2323 c-574 -103 -990 -623 -962 -1202 9 -187 44 -316 129 -483
171 -335 493 -567 868 -624 492 -74 981 179 1208 624 85 167 120 296 129 483
29 584 -391 1103 -972 1203 -110 19 -292 19 -400 -1z m325 -153 c341 -42 640
-257 786 -565 185 -390 109 -836 -196 -1144 l-75 -76 -5 290 -5 291 -274 494
c-151 272 -283 505 -294 518 -14 15 -32 22 -57 22 -25 0 -43 -7 -57 -22 -11
-13 -143 -246 -294 -518 l-274 -494 -5 -291 -5 -290 -75 76 c-304 307 -381
755 -196 1144 184 388 600 617 1026 565z m-52 -535 c34 -63 62 -117 62 -120 0
-3 -58 -5 -130 -5 -71 0 -130 2 -130 5 0 10 125 234 130 234 3 0 33 -51 68
-114z m245 -443 c48 -87 87 -161 87 -165 0 -4 -180 -7 -400 -7 -220 0 -400 3
-400 7 0 4 39 78 87 165 l88 158 225 0 225 0 88 -158z m-393 -677 c0 -333 -1
-345 -19 -345 -49 0 -185 33 -268 66 l-93 36 0 294 0 294 190 0 190 0 0 -345z
m540 51 l0 -294 -92 -36 c-84 -33 -220 -66 -269 -66 -18 0 -19 12 -19 345 l0
345 190 0 190 0 0 -294z"/>
</g>
</svg>
