<svg width="216" height="48" viewBox="0 0 216 48" fill="none" xmlns="http://www.w3.org/2000/svg">
<path d="M28.861 5.00083C26.283 5.03544 24.3646 6.14282 24.3646 6.14282L15.4547 11.2856C15.4547 11.2856 11 13.8571 11 19V29.2856C11 29.2856 10.9998 34.4285 15.4547 37L24.3646 42.1428C24.3646 42.1428 28.8194 44.7142 33.2742 42.1428L42.1839 37C46.6387 34.4285 46.6388 29.2856 46.6388 29.2856V19C46.6388 13.8571 42.1839 11.2856 42.1839 11.2856L33.2742 6.14282C31.7429 5.25889 30.2114 4.9827 28.861 5.00083ZM28.7985 12.0003C30.0876 12.0176 31.0469 12.5714 31.0469 12.5714L37.7289 16.4285C37.7289 16.4285 39.9565 17.7143 39.9565 20.2858V27.9998C39.9565 30.5713 37.7289 31.8572 37.7289 31.8572L31.0469 35.7142C28.8195 36.9999 26.5919 35.7142 26.5919 35.7142L19.9096 31.8572C19.9096 31.8572 17.6823 30.5713 17.6823 27.9998V20.2858C17.6823 17.7143 19.9096 16.4285 19.9096 16.4285L26.5919 12.5714C27.3576 12.1294 28.1233 11.9912 28.7985 12.0003Z" fill="#98A4AE"/>
<path d="M22.1377 20.2854L28.8199 24.1425L35.5022 20.2854V27.9997L28.82 31.8568L22.1377 27.9997V20.2854Z" fill="#98A4AE"/>
<path d="M132.227 11.9629L128.304 12.8503V16.6574H125.241V19.9491H128.304V27.3629C128.304 28.8132 128.724 29.92 129.564 30.6834C130.423 31.4276 131.683 31.7996 133.343 31.7996C133.763 31.7996 134.269 31.752 134.861 31.6566C135.453 31.5803 135.958 31.4752 136.378 31.3417V28.1357C135.996 28.2693 135.643 28.3647 135.319 28.422C134.994 28.4601 134.651 28.4791 134.288 28.4791C133.525 28.4791 132.99 28.3361 132.685 28.0499C132.379 27.7637 132.227 27.2674 132.227 26.5613V19.9491H136.464V16.6574H132.227V11.9629ZM122.292 16.3137C121.471 16.3137 120.717 16.4855 120.03 16.829C119.362 17.1535 118.789 17.6401 118.312 18.2889V16.6574H114.39V31.5707H118.312V21.9243C118.675 21.1991 119.171 20.6457 119.801 20.2641C120.45 19.8824 121.156 19.6916 121.92 19.6916C122.282 19.6916 122.635 19.7295 122.979 19.8059C123.323 19.8631 123.637 19.9585 123.924 20.0921V16.6574C123.733 16.5429 123.504 16.4664 123.237 16.4283C122.988 16.371 122.674 16.3328 122.292 16.3137ZM80.3761 16.3711C79.6126 16.3711 78.9064 16.4951 78.2575 16.7432C77.6085 16.9722 77.0167 17.3156 76.4823 17.7736V16.6574H72.5598V31.5707H76.4826V21.094C76.8261 20.6551 77.2268 20.3211 77.6849 20.0921C78.143 19.8631 78.6679 19.7487 79.2596 19.7487C80.1185 19.7487 80.7961 20.0349 81.2924 20.6074C81.8077 21.1799 82.0654 21.9337 82.0654 22.8688V31.5707H85.9879V22.2964C85.9879 22.1055 85.9784 21.9241 85.9592 21.7523C85.9402 21.5806 85.921 21.409 85.9018 21.2373C86.2454 20.7602 86.6559 20.3976 87.1331 20.1495C87.6293 19.8823 88.1733 19.7487 88.765 19.7487C89.6239 19.7487 90.3015 20.0349 90.7977 20.6074C91.3131 21.1799 91.5708 21.9337 91.5708 22.8688V31.5707H95.4933V22.2964C95.4933 20.5598 94.9587 19.1382 93.8898 18.0314C92.8209 16.9245 91.4564 16.3711 89.7958 16.3711C88.7842 16.3711 87.8584 16.5619 87.0185 16.9436C86.1787 17.3252 85.4629 17.8787 84.8712 18.6038C84.3749 17.8977 83.7356 17.3537 82.953 16.972C82.1895 16.5713 81.3304 16.3711 80.3761 16.3711ZM105.056 16.3711C103.987 16.3711 102.899 16.5047 101.792 16.7719C100.704 17.0391 99.5779 17.4396 98.4136 17.974L99.8451 20.8652C100.78 20.4454 101.611 20.14 102.336 19.9491C103.081 19.7392 103.768 19.6342 104.398 19.6342C105.428 19.6342 106.211 19.8536 106.745 20.2925C107.28 20.7314 107.547 21.3802 107.547 22.239V23.2983C106.955 23.1075 106.354 22.9642 105.743 22.8688C105.132 22.7734 104.522 22.7256 103.911 22.7256C102.002 22.7256 100.504 23.1264 99.4158 23.9279C98.3278 24.7294 97.7836 25.8362 97.7836 27.2484C97.7836 28.6033 98.2896 29.7101 99.3012 30.5688C100.313 31.4085 101.62 31.8283 103.224 31.8283C104.083 31.8283 104.856 31.7233 105.543 31.5133C106.249 31.3034 106.917 30.979 107.547 30.5401V31.5707H111.412V21.8956C111.412 20.1399 110.849 18.7851 109.723 17.831C108.616 16.8577 107.06 16.3711 105.056 16.3711ZM145.254 16.3996C144.185 16.3996 143.173 16.6 142.219 17.0007C141.284 17.4015 140.472 17.9549 139.785 18.661C139.098 19.3479 138.554 20.1686 138.153 21.1227C137.772 22.0578 137.581 23.0596 137.581 24.1283C137.581 25.216 137.781 26.2371 138.182 27.1912C138.602 28.1263 139.165 28.9373 139.871 29.6243C140.596 30.3113 141.446 30.8551 142.419 31.2558C143.412 31.6566 144.471 31.857 145.597 31.857C146.781 31.857 147.85 31.6852 148.804 31.3417C149.778 30.9982 150.722 30.4544 151.639 29.7101L149.062 27.3629C148.661 27.7446 148.174 28.0404 147.601 28.2503C147.029 28.4602 146.418 28.5652 145.769 28.5652C144.738 28.5652 143.841 28.2788 143.078 27.7063C142.314 27.1338 141.799 26.3802 141.532 25.4451H152.64V24.4145C152.64 23.2695 152.45 22.2105 152.068 21.2373C151.705 20.245 151.19 19.3957 150.522 18.6897C149.873 17.9836 149.09 17.4302 148.174 17.0294C147.277 16.6096 146.304 16.3996 145.254 16.3996ZM177.378 16.3996C176.309 16.3996 175.297 16.6 174.343 17.0007C173.407 17.4015 172.596 17.9549 171.909 18.661C171.222 19.3479 170.678 20.1686 170.277 21.1227C169.895 22.0578 169.705 23.0596 169.705 24.1283C169.705 25.216 169.905 26.2371 170.306 27.1912C170.726 28.1263 171.289 28.9373 171.995 29.6243C172.72 30.3113 173.57 30.8551 174.543 31.2558C175.536 31.6566 176.595 31.857 177.721 31.857C178.905 31.857 179.974 31.6852 180.928 31.3417C181.901 30.9982 182.846 30.4544 183.762 29.7101L181.185 27.3629C180.785 27.7446 180.298 28.0404 179.725 28.2503C179.153 28.4602 178.542 28.5652 177.893 28.5652C176.862 28.5652 175.965 28.2788 175.202 27.7063C174.438 27.1338 173.923 26.3802 173.655 25.4451H184.764V24.4145C184.764 23.2695 184.573 22.2105 184.192 21.2373C183.829 20.245 183.314 19.3957 182.646 18.6897C181.997 17.9836 181.214 17.4302 180.298 17.0294C179.401 16.6096 178.427 16.3996 177.378 16.3996ZM63.8846 16.4283C61.9949 16.4283 60.4872 16.8577 59.3611 17.7164C58.2349 18.5752 57.6718 19.7202 57.6718 21.1514C57.6718 22.3537 58.0535 23.3173 58.8169 24.0424C59.5995 24.7676 60.7258 25.2446 62.1956 25.4736L65.0585 25.9031C65.7075 25.9985 66.1752 26.1607 66.4615 26.3897C66.7669 26.6187 66.9195 26.9238 66.9195 27.3055C66.9195 27.7826 66.6523 28.1644 66.1178 28.4507C65.6025 28.7369 64.9059 28.8799 64.0279 28.8799C63.2453 28.8799 62.4627 28.7463 61.6801 28.4791C60.8975 28.1929 60.0674 27.7637 59.1894 27.1912L57.2422 29.796C58.082 30.4639 59.0937 30.9791 60.2771 31.3417C61.4605 31.6852 62.7298 31.857 64.085 31.857C65.0203 31.857 65.889 31.733 66.6906 31.4849C67.4923 31.2368 68.1793 30.8932 68.7519 30.4543C69.3245 30.0154 69.7732 29.5002 70.0977 28.9086C70.4413 28.2979 70.6129 27.6395 70.6129 26.9334C70.6129 25.7884 70.2122 24.8438 69.4106 24.0996C68.628 23.3553 67.5113 22.8783 66.0606 22.6684L63.1975 22.239C62.4721 22.1435 61.9475 21.991 61.623 21.781C61.3176 21.552 61.1647 21.2373 61.1647 20.8365C61.1647 20.3976 61.3748 20.0446 61.7947 19.7774C62.2337 19.5103 62.8062 19.3767 63.5125 19.3767C64.2759 19.3767 65.0299 19.5007 65.7744 19.7487C66.5188 19.9777 67.3013 20.3307 68.1221 20.8078L70.0116 18.2889C69.0763 17.6782 68.0935 17.2202 67.0628 16.9149C66.0321 16.5905 64.9726 16.4283 63.8846 16.4283ZM152.927 16.6574L158.739 31.7137L158.51 32.2578C158.224 32.9257 157.832 33.4312 157.336 33.7747C156.859 34.1182 156.267 34.2901 155.561 34.2901C155.255 34.2901 154.998 34.2804 154.788 34.2614C154.578 34.2423 154.377 34.2137 154.186 34.1755V37.5531C154.377 37.6103 154.626 37.6486 154.931 37.6677C155.256 37.7058 155.589 37.7251 155.933 37.7251C157.555 37.7251 158.873 37.3432 159.884 36.5799C160.896 35.8166 161.783 34.5382 162.547 32.7444L169.418 16.6574H165.181L160.943 26.8189L157.25 16.6574H152.927ZM192.133 17.6168C191.731 17.6168 191.386 17.761 191.097 18.0497C190.808 18.3384 190.664 18.6837 190.664 19.0854C190.664 19.4871 190.808 19.8323 191.097 20.1211C191.386 20.4098 191.731 20.5543 192.133 20.5543C192.535 20.5543 192.88 20.4098 193.169 20.1211C193.458 19.8323 193.602 19.4871 193.602 19.0854C193.602 18.6837 193.458 18.3384 193.169 18.0497C192.88 17.761 192.535 17.6168 192.133 17.6168ZM205.318 17.7861L202.737 18.3511V22.362C202.348 22.1109 201.921 21.9225 201.456 21.797C201.004 21.6589 200.54 21.59 200.063 21.59C199.36 21.59 198.694 21.7218 198.066 21.9854C197.451 22.2365 196.917 22.588 196.465 23.04C196.013 23.4919 195.655 24.0253 195.392 24.6404C195.128 25.2555 194.996 25.9147 194.996 26.6177C194.996 27.3207 195.122 27.9798 195.373 28.595C195.636 29.2101 195.994 29.7437 196.446 30.1957C196.898 30.6476 197.426 31.0052 198.028 31.2688C198.644 31.5325 199.297 31.6643 199.987 31.6643C200.502 31.6643 200.998 31.589 201.475 31.4384C201.952 31.2752 202.386 31.0365 202.775 30.7227V31.5325H205.318V17.7861ZM145.168 19.6342C146.027 19.6342 146.781 19.9204 147.43 20.4929C148.098 21.0463 148.556 21.7619 148.804 22.6397H141.503C141.751 21.7237 142.2 20.9988 142.849 20.4644C143.498 19.911 144.271 19.6342 145.168 19.6342ZM177.292 19.6342C178.151 19.6342 178.905 19.9204 179.554 20.4929C180.222 21.0463 180.68 21.7619 180.928 22.6397H173.627C173.875 21.7237 174.324 20.9988 174.973 20.4644C175.622 19.911 176.395 19.6342 177.292 19.6342ZM190.852 21.7218V31.5325H193.433V21.7218H190.852ZM200.402 23.7743C200.866 23.7743 201.299 23.8558 201.701 24.019C202.116 24.1822 202.461 24.4083 202.737 24.697V28.5195C202.448 28.8208 202.103 29.0531 201.701 29.2163C201.312 29.3795 200.879 29.4611 200.402 29.4611C199.598 29.4611 198.92 29.1851 198.368 28.6327C197.815 28.0804 197.539 27.4086 197.539 26.6177C197.539 25.8142 197.809 25.1427 198.349 24.6029C198.901 24.0506 199.585 23.7743 200.402 23.7743ZM104.398 25.3019C104.97 25.3019 105.514 25.3497 106.029 25.4451C106.564 25.5215 107.07 25.6548 107.547 25.8456V28.0786C107.089 28.3839 106.583 28.6223 106.029 28.794C105.495 28.9467 104.903 29.0231 104.254 29.0231C103.434 29.0231 102.775 28.8609 102.279 28.5365C101.782 28.193 101.534 27.735 101.534 27.1625C101.534 26.59 101.782 26.1416 102.279 25.8172C102.794 25.4737 103.5 25.3019 104.398 25.3019ZM187.556 28.6513C187.142 28.6513 186.784 28.8021 186.483 29.1034C186.181 29.4047 186.031 29.7689 186.031 30.1957C186.031 30.61 186.181 30.9676 186.483 31.2688C186.784 31.5701 187.142 31.7209 187.556 31.7209C187.983 31.7209 188.347 31.5701 188.649 31.2688C188.95 30.9676 189.101 30.61 189.101 30.1957C189.101 29.7689 188.95 29.4047 188.649 29.1034C188.347 28.8021 187.983 28.6513 187.556 28.6513Z" fill="white"/>
</svg>
